<svg xmlns="http://www.w3.org/2000/svg" xmlns:xlink="http://www.w3.org/1999/xlink" width="600" zoomAndPan="magnify" viewBox="0 0 450 449.999984" height="600" preserveAspectRatio="xMidYMid meet" version="1.0"><defs><clipPath id="d409ba120c"><path d="M 0 67 L 422 67 L 422 395.476562 L 0 395.476562 Z M 0 67 " clip-rule="nonzero"/></clipPath><clipPath id="ee0f9948ac"><path d="M 0 223 L 222 223 L 222 395.476562 L 0 395.476562 Z M 0 223 " clip-rule="nonzero"/></clipPath><clipPath id="a31eab3802"><path d="M 23 35.476562 L 450 35.476562 L 450 378 L 23 378 Z M 23 35.476562 " clip-rule="nonzero"/></clipPath></defs><path fill="#ffffff" d="M 296.109375 343.703125 L 64.605469 388.433594 C 48.371094 391.566406 32.664062 380.949219 29.527344 364.714844 L 7.140625 248.839844 C 4 232.605469 14.621094 216.898438 30.855469 213.761719 L 262.359375 169.027344 C 278.59375 165.890625 294.296875 176.507812 297.4375 192.75 L 319.824219 308.625 C 322.960938 324.859375 312.34375 340.566406 296.109375 343.703125 " fill-opacity="1" fill-rule="nonzero"/><g clip-path="url(#d409ba120c)"><path stroke-linecap="butt" transform="matrix(0.113924, 0, 0, -0.113924, -60.151881, 500.628009)" fill="none" stroke-linejoin="miter" d="M 3127.182142 1377.451763 L 1095.092293 984.817648 C 952.590557 957.318516 814.717726 1050.513828 787.184306 1193.015565 L 590.678663 2210.140568 C 563.110955 2352.642304 656.340556 2490.515134 798.842292 2518.048555 L 2830.932142 2910.716958 C 2973.433878 2938.250379 3111.27242 2845.055066 3138.840128 2702.484753 L 3335.345771 1685.35975 C 3362.879192 1542.858014 3269.683879 1404.985184 3127.182142 1377.451763 Z M 3127.182142 1377.451763 " stroke="#000000" stroke-width="62.841" stroke-opacity="1" stroke-miterlimit="10"/></g><path fill="#ffffff" d="M 110.710938 266.242188 C 113.480469 280.585938 104.101562 294.453125 89.765625 297.226562 C 75.425781 299.992188 61.554688 290.617188 58.789062 276.277344 C 56.015625 261.9375 65.390625 248.066406 79.730469 245.300781 C 94.066406 242.527344 107.941406 251.902344 110.710938 266.242188 " fill-opacity="1" fill-rule="nonzero"/><path stroke-linecap="butt" transform="matrix(0.113924, 0, 0, -0.113924, -60.151881, 500.628009)" fill="none" stroke-linejoin="miter" d="M 1499.795853 2057.386661 C 1524.106183 1931.480411 1441.780228 1809.75732 1315.942554 1785.412702 C 1190.070592 1761.13666 1068.313213 1843.428327 1044.037171 1969.300289 C 1019.692553 2095.172251 1101.98422 2216.92963 1227.856182 2241.205672 C 1353.693856 2265.55029 1475.485523 2183.258623 1499.795853 2057.386661 Z M 1499.795853 2057.386661 " stroke="#000000" stroke-width="47.130001" stroke-opacity="1" stroke-miterlimit="10"/><path fill="#ffffff" d="M 108.1875 299.625 C 105.632812 307.179688 99.75 312.996094 92.066406 314.480469 C 84.605469 315.925781 77.203125 312.945312 72.03125 307.222656 C 58.746094 315.425781 50.042969 328.941406 49.039062 343.617188 C 48.648438 349.210938 53.742188 353.628906 59.25 352.5625 L 138.707031 337.214844 C 144.238281 336.140625 147.289062 330.117188 144.828125 325.042969 C 138.167969 311.328125 124.3125 301.851562 108.1875 299.625 " fill-opacity="1" fill-rule="nonzero"/><g clip-path="url(#ee0f9948ac)"><path stroke-linecap="butt" transform="matrix(0.113924, 0, 0, -0.113924, -60.151881, 500.628009)" fill="none" stroke-linejoin="miter" d="M 1477.64568 1764.35975 C 1455.2212 1698.046382 1403.583179 1646.991261 1336.138301 1633.961747 C 1270.647849 1621.275115 1205.671721 1647.437007 1160.274151 1697.669212 C 1043.660001 1625.664004 967.265904 1507.02685 958.453838 1378.206104 C 955.025018 1329.105409 999.736824 1290.325461 1048.083178 1299.686138 L 1745.539343 1434.404454 C 1794.091427 1443.833708 1820.870507 1496.706104 1799.268944 1541.246469 C 1740.807573 1661.63232 1619.187347 1744.81548 1477.64568 1764.35975 Z M 1477.64568 1764.35975 " stroke="#000000" stroke-width="47.130001" stroke-opacity="1" stroke-miterlimit="10"/></g><path fill="#000000" d="M 263.175781 213.535156 L 171.089844 231.328125 C 169.636719 231.605469 168.230469 230.65625 167.945312 229.199219 C 167.664062 227.746094 168.617188 226.332031 170.074219 226.054688 L 262.15625 208.261719 C 263.609375 207.980469 265.015625 208.933594 265.300781 210.390625 C 265.582031 211.84375 264.628906 213.25 263.175781 213.535156 " fill-opacity="1" fill-rule="nonzero"/><path fill="#000000" d="M 266.726562 231.910156 L 149.691406 254.519531 C 148.230469 254.804688 146.824219 253.851562 146.542969 252.394531 C 146.265625 250.9375 147.214844 249.53125 148.671875 249.253906 L 265.707031 226.636719 C 267.160156 226.355469 268.566406 227.308594 268.847656 228.761719 C 269.128906 230.21875 268.179688 231.628906 266.726562 231.910156 " fill-opacity="1" fill-rule="nonzero"/><path fill="#000000" d="M 270.238281 250.085938 L 153.203125 272.695312 C 151.746094 272.980469 150.335938 272.027344 150.054688 270.574219 C 149.777344 269.113281 150.726562 267.707031 152.183594 267.425781 L 269.21875 244.8125 C 270.671875 244.53125 272.078125 245.484375 272.359375 246.9375 C 272.644531 248.394531 271.691406 249.804688 270.238281 250.085938 " fill-opacity="1" fill-rule="nonzero"/><path fill="#000000" d="M 278.589844 293.3125 L 186.507812 311.105469 C 185.050781 311.386719 183.640625 310.433594 183.359375 308.976562 C 183.082031 307.523438 184.03125 306.117188 185.488281 305.832031 L 277.570312 288.039062 C 279.027344 287.757812 280.433594 288.710938 280.710938 290.167969 C 280.996094 291.621094 280.042969 293.03125 278.589844 293.3125 " fill-opacity="1" fill-rule="nonzero"/><path fill="#000000" d="M 281.828125 310.082031 L 168.660156 331.949219 C 167.203125 332.230469 165.796875 331.277344 165.515625 329.820312 C 165.234375 328.367188 166.1875 326.957031 167.644531 326.675781 L 280.808594 304.8125 C 282.265625 304.527344 283.671875 305.480469 283.957031 306.9375 C 284.238281 308.394531 283.285156 309.800781 281.828125 310.082031 " fill-opacity="1" fill-rule="nonzero"/><path fill="#333333" d="M 375.554688 275.125 L 147.351562 215.804688 C 131.347656 211.644531 121.75 195.296875 125.90625 179.296875 L 155.601562 65.070312 C 159.761719 49.066406 176.105469 39.460938 192.109375 43.625 L 420.3125 102.945312 C 436.316406 107.105469 445.921875 123.449219 441.757812 139.457031 L 412.066406 253.679688 C 407.90625 269.683594 391.5625 279.285156 375.554688 275.125 " fill-opacity="1" fill-rule="nonzero"/><g clip-path="url(#a31eab3802)"><path stroke-linecap="butt" transform="matrix(0.113924, 0, 0, -0.113924, -60.151881, 500.628009)" fill="none" stroke-linejoin="miter" d="M 3824.535443 1979.415307 L 1821.419118 2500.115829 C 1680.940385 2536.632756 1596.694291 2680.12885 1633.17693 2820.573295 L 1893.835785 3823.22868 C 1930.352712 3963.707413 2073.814518 4048.022083 2214.293251 4011.470868 L 4217.409576 3490.770345 C 4357.888309 3454.253418 4442.202979 3310.791612 4405.651764 3170.278591 L 4145.027197 2167.657495 C 4108.51027 2027.178762 3965.048464 1942.898379 3824.535443 1979.415307 Z M 3824.535443 1979.415307 " stroke="#333333" stroke-width="62.841" stroke-opacity="1" stroke-miterlimit="10"/></g><path fill="#ffffff" d="M 240.78125 125.808594 C 237.199219 139.582031 223.128906 147.847656 209.355469 144.269531 C 195.578125 140.6875 187.3125 126.613281 190.890625 112.835938 C 194.472656 99.0625 208.542969 90.800781 222.320312 94.378906 C 236.09375 97.960938 244.363281 112.03125 240.78125 125.808594 " fill-opacity="1" fill-rule="nonzero"/><path fill="#ffffff" d="M 224.550781 154.113281 C 219.132812 159.6875 211.515625 162.335938 204.132812 160.414062 C 196.964844 158.554688 191.703125 152.824219 189.554688 145.621094 C 174.425781 147.257812 161.097656 155.496094 154.050781 167.984375 C 151.363281 172.746094 153.988281 178.765625 159.28125 180.140625 L 235.617188 199.984375 C 240.9375 201.367188 246.148438 197.339844 246.113281 191.847656 C 246.011719 176.992188 237.800781 162.839844 224.550781 154.113281 " fill-opacity="1" fill-rule="nonzero"/><path fill="#ffffff" d="M 401.882812 143.460938 L 311.117188 119.867188 C 309.683594 119.496094 308.820312 118.027344 309.195312 116.59375 C 309.566406 115.15625 311.03125 114.296875 312.46875 114.671875 L 403.234375 138.265625 C 404.671875 138.640625 405.53125 140.101562 405.15625 141.539062 C 404.78125 142.972656 403.320312 143.832031 401.882812 143.460938 " fill-opacity="1" fill-rule="nonzero"/><path stroke-linecap="butt" transform="matrix(0.113924, 0, 0, -0.113924, -60.151881, 500.628009)" fill="none" stroke-linejoin="miter" d="M 4055.637874 3135.133192 L 3258.917386 3342.233887 C 3246.333618 3345.491265 3238.755927 3358.383626 3242.047594 3370.967394 C 3245.304973 3383.585449 3258.163045 3391.128852 3270.781101 3387.837185 L 4067.501589 3180.73649 C 4080.119645 3177.444824 4087.663048 3164.621039 4084.371381 3152.002983 C 4081.079714 3139.419216 4068.25593 3131.875813 4055.637874 3135.133192 Z M 4055.637874 3135.133192 " stroke="#ffffff" stroke-width="3.142" stroke-opacity="1" stroke-miterlimit="10"/><path fill="#ffffff" d="M 397.171875 161.574219 L 281.8125 131.585938 C 280.375 131.210938 279.515625 129.746094 279.890625 128.308594 C 280.257812 126.878906 281.726562 126.019531 283.160156 126.390625 L 398.527344 156.378906 C 399.957031 156.75 400.820312 158.214844 400.449219 159.652344 C 400.074219 161.085938 398.609375 161.949219 397.171875 161.574219 " fill-opacity="1" fill-rule="nonzero"/><path stroke-linecap="butt" transform="matrix(0.113924, 0, 0, -0.113924, -60.151881, 500.628009)" fill="none" stroke-linejoin="miter" d="M 4014.286311 2976.138834 L 3001.68735 3239.369303 C 2989.069295 3242.66097 2981.525892 3255.519043 2984.817559 3268.137098 C 2988.040649 3280.686577 3000.93301 3288.22998 3013.516777 3284.972602 L 4026.184315 3021.742132 C 4038.733794 3018.484754 4046.311485 3005.626681 4043.054107 2993.008625 C 4039.76244 2980.424858 4026.904367 2972.847167 4014.286311 2976.138834 Z M 4014.286311 2976.138834 " stroke="#ffffff" stroke-width="3.142" stroke-opacity="1" stroke-miterlimit="10"/><path fill="#ffffff" d="M 392.519531 179.492188 L 277.152344 149.5 C 275.71875 149.128906 274.855469 147.664062 275.230469 146.226562 C 275.605469 144.792969 277.066406 143.929688 278.503906 144.304688 L 393.867188 174.292969 C 395.304688 174.667969 396.164062 176.132812 395.792969 177.570312 C 395.417969 179 393.949219 179.863281 392.519531 179.492188 " fill-opacity="1" fill-rule="nonzero"/><path stroke-linecap="butt" transform="matrix(0.113924, 0, 0, -0.113924, -60.151881, 500.628009)" fill="none" stroke-linejoin="miter" d="M 3973.449072 2818.858885 L 2960.781534 3082.123643 C 2948.197767 3085.381021 2940.620076 3098.239094 2943.911743 3110.85715 C 2947.203409 3123.440917 2960.027194 3131.018608 2972.64525 3127.726942 L 3985.278499 2864.496472 C 3997.896554 2861.204806 4005.439957 2848.346733 4002.182579 2835.728677 C 3998.890912 2823.179198 3985.998551 2815.601507 3973.449072 2818.858885 Z M 3973.449072 2818.858885 " stroke="#ffffff" stroke-width="3.142" stroke-opacity="1" stroke-miterlimit="10"/><path fill="#ffffff" d="M 381.441406 222.101562 L 290.671875 198.507812 C 289.238281 198.132812 288.375 196.667969 288.75 195.234375 C 289.125 193.796875 290.585938 192.941406 292.023438 193.308594 L 382.789062 216.902344 C 384.226562 217.277344 385.085938 218.746094 384.710938 220.179688 C 384.339844 221.617188 382.875 222.476562 381.441406 222.101562 " fill-opacity="1" fill-rule="nonzero"/><path stroke-linecap="butt" transform="matrix(0.113924, 0, 0, -0.113924, -60.151881, 500.628009)" fill="none" stroke-linejoin="miter" d="M 3876.207752 2444.843259 L 3079.452976 2651.943954 C 3066.869208 2655.235621 3059.291517 2668.093694 3062.583184 2680.677461 C 3065.874851 2693.295517 3078.698635 2700.804631 3091.316691 2697.581541 L 3888.037179 2490.480846 C 3900.655235 2487.189179 3908.198638 2474.296818 3904.906971 2461.713051 C 3901.649592 2449.094995 3888.791519 2441.551593 3876.207752 2444.843259 Z M 3876.207752 2444.843259 " stroke="#ffffff" stroke-width="3.142" stroke-opacity="1" stroke-miterlimit="10"/><path fill="#ffffff" d="M 377.144531 238.632812 L 265.589844 209.632812 C 264.152344 209.261719 263.292969 207.792969 263.667969 206.363281 C 264.042969 204.925781 265.507812 204.066406 266.9375 204.4375 L 378.496094 233.4375 C 379.929688 233.808594 380.792969 235.273438 380.417969 236.710938 C 380.042969 238.144531 378.582031 239.007812 377.144531 238.632812 " fill-opacity="1" fill-rule="nonzero"/><path stroke-linecap="butt" transform="matrix(0.113924, 0, 0, -0.113924, -60.151881, 500.628009)" fill="none" stroke-linejoin="miter" d="M 3838.490738 2299.73562 L 2859.288478 2554.291176 C 2846.670423 2557.548555 2839.12702 2570.440916 2842.418687 2583.024683 C 2845.710353 2595.608451 2858.568426 2603.151853 2871.117906 2599.894475 L 3850.354453 2345.338919 C 3862.938221 2342.08154 3870.515912 2329.223467 3867.224245 2316.605412 C 3863.932578 2304.021644 3851.108794 2296.443953 3838.490738 2299.73562 Z M 3838.490738 2299.73562 " stroke="#ffffff" stroke-width="3.142" stroke-opacity="1" stroke-miterlimit="10"/></svg>